# Blender v3.0.1 OBJ File: ''
# www.blender.org
mtllib factory_pillar01.mtl
o factory_pillar01
v 40.718750 57.312500 -10.906250
v 40.718750 57.312500 10.906250
v 58.156250 47.187500 15.578125
v 58.156250 47.187500 -15.578125
v 29.812500 57.312500 -29.812500
v 42.562500 47.187500 -42.562500
v 10.906250 57.312500 -40.718750
v 15.578125 47.187500 -58.156250
v -10.906250 57.312500 -40.718750
v -15.578125 47.187500 -58.156250
v -29.812500 57.312500 -29.812500
v -10.906250 57.312500 -40.718750
v -15.578125 47.187500 -58.156250
v -42.562500 47.187500 -42.562500
v -40.718750 57.312500 -10.906250
v -58.156250 47.187500 -15.578125
v -40.718750 57.312500 10.906250
v -58.156250 47.187500 15.578125
v -29.812500 57.312500 29.812500
v -42.562500 47.187500 42.562500
v -10.906250 57.312500 40.718750
v -15.578125 47.187500 58.156250
v 10.906250 57.312500 40.718750
v 15.578125 47.187500 58.156250
v 29.812500 57.312500 29.812500
v 42.562500 47.187500 42.562500
v 53.437500 37.625000 14.320313
v 53.437500 37.625000 -14.320313
v 39.125000 37.625000 -39.125000
v 14.320313 37.625000 -53.437500
v -14.320313 37.625000 -53.437500
v -14.320313 37.625000 -53.437500
v -39.125000 37.625000 -39.125000
v -53.437500 37.625000 -14.320313
v -53.437500 37.625000 14.320313
v -39.125000 37.625000 39.125000
v -14.320313 37.625000 53.437500
v 14.320313 37.625000 53.437500
v 39.125000 37.625000 39.125000
v 53.437500 37.625000 -14.320313
v 53.437500 37.625000 14.320313
v 54.437500 0.334229 14.593750
v 54.437500 0.334229 -14.593750
v 39.125000 37.625000 -39.125000
v 39.843750 0.334229 -39.843750
v 14.320313 37.625000 -53.437500
v 14.593750 0.334229 -54.437500
v -14.320313 37.625000 -53.437500
v -14.593750 0.334229 -54.437500
v -39.125000 37.625000 -39.125000
v -14.320313 37.625000 -53.437500
v -14.593750 0.334229 -54.437500
v -39.843750 0.334229 -39.843750
v -53.437500 37.625000 -14.320313
v -54.437500 0.334229 -14.593750
v -53.437500 37.625000 14.320313
v -54.437500 0.334229 14.593750
v -39.125000 37.625000 39.125000
v -39.843750 0.334229 39.843750
v -14.320313 37.625000 53.437500
v -14.593750 0.334229 54.437500
v 14.320313 37.625000 53.437500
v 14.593750 0.334229 54.437500
v 39.125000 37.625000 39.125000
v 39.843750 0.334229 39.843750
v 35.312500 57.312500 9.460938
v 35.312500 57.312500 -9.460938
v 35.312500 442.750000 -9.460938
v 35.312500 442.750000 9.460938
v 25.843750 442.750000 -25.843750
v 25.843750 57.312500 -25.843750
v 9.460938 57.312500 -35.312500
v 9.460938 442.750000 -35.312500
v -9.460938 442.750000 -35.312500
v -9.460938 57.312500 -35.312500
v -25.843750 57.312500 -25.843750
v -25.843750 442.750000 -25.843750
v -9.460938 442.750000 -35.312500
v -9.460938 57.312500 -35.312500
v -35.312500 57.312500 -9.460938
v -35.312500 442.750000 -9.460938
v -35.312500 442.750000 9.460938
v -35.312500 57.312500 9.460938
v -25.843750 442.750000 25.843750
v -25.843750 57.312500 25.843750
v -9.460938 442.750000 35.312500
v -9.460938 57.312500 35.312500
v 9.460938 442.750000 35.312500
v 9.460938 57.312500 35.312500
v 25.843750 57.312500 25.843750
v 25.843750 442.750000 25.843750
v 29.812500 57.312500 -29.812500
v 10.906250 57.312500 -40.718750
v -10.906250 57.312500 -40.718750
v -29.812500 57.312500 -29.812500
v -40.718750 57.312500 -10.906250
v -29.812500 57.312500 29.812500
v -40.718750 57.312500 10.906250
v -10.906250 57.312500 40.718750
v 10.906250 57.312500 40.718750
v 29.812500 57.312500 29.812500
v 40.718750 57.312500 10.906250
v 40.718750 57.312500 -10.906250
v -40.718750 441.750000 -10.906250
v -40.718750 441.750000 10.906250
v -58.156250 451.750000 15.578125
v -58.156250 451.750000 -15.578125
v -29.812500 441.750000 -29.812500
v -42.562500 451.750000 -42.562500
v -10.906250 441.750000 -40.718750
v -15.578125 451.750000 -58.156250
v 10.906250 441.750000 -40.718750
v 15.578125 451.750000 -58.156250
v 29.812500 441.750000 -29.812500
v 10.906250 441.750000 -40.718750
v 15.578125 451.750000 -58.156250
v 42.562500 451.750000 -42.562500
v 40.718750 441.750000 -10.906250
v 58.156250 451.750000 -15.578125
v 40.718750 441.750000 10.906250
v 58.156250 451.750000 15.578125
v 29.812500 441.750000 29.812500
v 42.562500 451.750000 42.562500
v 10.906250 441.750000 40.718750
v 15.578125 451.750000 58.156250
v -10.906250 441.750000 40.718750
v -15.578125 451.750000 58.156250
v -29.812500 441.750000 29.812500
v -42.562500 451.750000 42.562500
v -53.437500 461.500000 14.320313
v -53.437500 461.500000 -14.320313
v -39.125000 461.500000 -39.125000
v -14.320313 461.500000 -53.437500
v 14.320313 461.500000 -53.437500
v 14.320313 461.500000 -53.437500
v 39.125000 461.500000 -39.125000
v 53.437500 461.500000 -14.320313
v 53.437500 461.500000 14.320313
v 39.125000 461.500000 39.125000
v 14.320313 461.500000 53.437500
v -14.320313 461.500000 53.437500
v -39.125000 461.500000 39.125000
v -53.437500 461.500000 -14.320313
v -53.437500 461.500000 14.320313
v -54.437500 498.750000 14.593750
v -54.437500 498.750000 -14.593750
v -39.125000 461.500000 -39.125000
v -39.843750 498.750000 -39.843750
v -14.320313 461.500000 -53.437500
v -14.593750 498.750000 -54.437500
v 14.320313 461.500000 -53.437500
v 14.593750 498.750000 -54.437500
v 39.125000 461.500000 -39.125000
v 14.320313 461.500000 -53.437500
v 14.593750 498.750000 -54.437500
v 39.843750 498.750000 -39.843750
v 53.437500 461.500000 -14.320313
v 54.437500 498.750000 -14.593750
v 53.437500 461.500000 14.320313
v 54.437500 498.750000 14.593750
v 39.125000 461.500000 39.125000
v 39.843750 498.750000 39.843750
v 14.320313 461.500000 53.437500
v 14.593750 498.750000 54.437500
v -14.320313 461.500000 53.437500
v -14.593750 498.750000 54.437500
v -39.125000 461.500000 39.125000
v -39.843750 498.750000 39.843750
v -29.812500 441.750000 -29.812500
v -10.906250 441.750000 -40.718750
v 10.906250 441.750000 -40.718750
v 29.812500 441.750000 -29.812500
v 40.718750 441.750000 -10.906250
v 29.812500 441.750000 29.812500
v 40.718750 441.750000 10.906250
v 10.906250 441.750000 40.718750
v -10.906250 441.750000 40.718750
v -29.812500 441.750000 29.812500
v -40.718750 441.750000 10.906250
v -40.718750 441.750000 -10.906250
vt 0.549316 0.638184
vt 0.549316 0.568359
vt 0.602051 0.568359
vt 0.602051 0.638184
vt 0.549316 0.707764
vt 0.602051 0.707764
vt 0.549316 0.775635
vt 0.602051 0.775635
vt 0.549316 0.839844
vt 0.602051 0.839844
vt 0.549316 0.082031
vt 0.549316 0.018066
vt 0.602051 0.018066
vt 0.602051 0.082031
vt 0.549316 0.149902
vt 0.602051 0.149902
vt 0.549316 0.219727
vt 0.602051 0.219727
vt 0.549316 0.289551
vt 0.602051 0.289551
vt 0.549316 0.359375
vt 0.602051 0.359375
vt 0.549316 0.428711
vt 0.602051 0.428711
vt 0.549316 0.498535
vt 0.602051 0.498535
vt 0.632813 0.568359
vt 0.632813 0.638184
vt 0.632813 0.707764
vt 0.632813 0.775635
vt 0.632813 0.839844
vt 0.632813 0.018066
vt 0.632813 0.082031
vt 0.632813 0.149902
vt 0.632813 0.219727
vt 0.632813 0.289551
vt 0.632813 0.359375
vt 0.632813 0.428711
vt 0.632813 0.498535
vt 0.632813 0.638184
vt 0.632813 0.568359
vt 0.724609 0.568359
vt 0.724609 0.638184
vt 0.632813 0.707764
vt 0.724609 0.707764
vt 0.632813 0.775635
vt 0.724609 0.775635
vt 0.632813 0.839844
vt 0.724609 0.839844
vt 0.632813 0.082031
vt 0.632813 0.018066
vt 0.724609 0.018066
vt 0.724609 0.082031
vt 0.632813 0.149902
vt 0.724609 0.149902
vt 0.632813 0.219727
vt 0.724609 0.219727
vt 0.632813 0.289551
vt 0.724609 0.289551
vt 0.632813 0.359375
vt 0.724609 0.359375
vt 0.632813 0.428711
vt 0.724609 0.428711
vt 0.632813 0.498535
vt 0.724609 0.498535
vt 0.183716 0.015625
vt 0.135132 0.015625
vt 0.135132 1.006981
vt 0.183716 1.006981
vt 0.092957 1.006981
vt 0.092957 0.015625
vt 0.050812 0.015625
vt 0.050812 1.006981
vt 0.002153 1.006981
vt 0.002155 0.015625
vt 0.491943 0.015625
vt 0.491943 1.006981
vt 0.533691 1.006981
vt 0.533691 0.015625
vt 0.449707 0.015625
vt 0.449707 1.006981
vt 0.401123 1.006981
vt 0.401123 0.015625
vt 0.358887 1.006981
vt 0.358887 0.015625
vt 0.316650 1.006981
vt 0.316650 0.015625
vt 0.268066 1.006981
vt 0.268066 0.015625
vt 0.225952 0.015625
vt 0.225952 1.006981
vt 0.930176 0.811768
vt 0.954590 0.853882
vt 0.954590 0.902527
vt 0.930176 0.944702
vt 0.888184 0.969025
vt 0.797363 0.944702
vt 0.839355 0.969025
vt 0.772949 0.902527
vt 0.772949 0.853882
vt 0.797363 0.811768
vt 0.839355 0.787354
vt 0.888184 0.787354
vt 0.549316 0.638184
vt 0.549316 0.568359
vt 0.602051 0.568359
vt 0.602051 0.638184
vt 0.549316 0.707764
vt 0.602051 0.707764
vt 0.549316 0.775635
vt 0.602051 0.775635
vt 0.549316 0.839844
vt 0.602051 0.839844
vt 0.549316 0.082031
vt 0.549316 0.018066
vt 0.602051 0.018066
vt 0.602051 0.082031
vt 0.549316 0.149902
vt 0.602051 0.149902
vt 0.549316 0.219727
vt 0.602051 0.219727
vt 0.549316 0.289551
vt 0.602051 0.289551
vt 0.549316 0.359375
vt 0.602051 0.359375
vt 0.549316 0.428711
vt 0.602051 0.428711
vt 0.549316 0.498535
vt 0.602051 0.498535
vt 0.632813 0.568359
vt 0.632813 0.638184
vt 0.632813 0.707764
vt 0.632813 0.775635
vt 0.632813 0.839844
vt 0.632813 0.018066
vt 0.632813 0.082031
vt 0.632813 0.149902
vt 0.632813 0.219727
vt 0.632813 0.289551
vt 0.632813 0.359375
vt 0.632813 0.428711
vt 0.632813 0.498535
vt 0.632813 0.638184
vt 0.632813 0.568359
vt 0.724609 0.568359
vt 0.724609 0.638184
vt 0.632813 0.707764
vt 0.724609 0.707764
vt 0.632813 0.775635
vt 0.724609 0.775635
vt 0.632813 0.839844
vt 0.724609 0.839844
vt 0.632813 0.082031
vt 0.632813 0.018066
vt 0.724609 0.018066
vt 0.724609 0.082031
vt 0.632813 0.149902
vt 0.724609 0.149902
vt 0.632813 0.219727
vt 0.724609 0.219727
vt 0.632813 0.289551
vt 0.724609 0.289551
vt 0.632813 0.359375
vt 0.724609 0.359375
vt 0.632813 0.428711
vt 0.724609 0.428711
vt 0.632813 0.498535
vt 0.724609 0.498535
vt 0.930176 0.811768
vt 0.954590 0.853882
vt 0.954590 0.902527
vt 0.930176 0.944702
vt 0.888184 0.969025
vt 0.797363 0.944702
vt 0.839355 0.969025
vt 0.772949 0.902527
vt 0.772949 0.853882
vt 0.797363 0.811768
vt 0.839355 0.787354
vt 0.888184 0.787354
vn 0.4729 0.8719 -0.1267
vn 0.4729 0.8720 0.1267
vn 0.9320 0.2627 0.2498
vn 0.9321 0.2625 -0.2497
vn 0.3465 0.8718 -0.3463
vn 0.6823 0.2627 -0.6822
vn 0.1267 0.8720 -0.4729
vn 0.2498 0.2627 -0.9320
vn -0.1268 0.8719 -0.4731
vn -0.2498 0.2623 -0.9321
vn -0.3463 0.8718 -0.3465
vn -0.1267 0.8719 -0.4731
vn -0.2497 0.2623 -0.9321
vn -0.6822 0.2627 -0.6823
vn -0.4729 0.8720 -0.1267
vn -0.9321 0.2622 -0.2497
vn -0.4729 0.8719 0.1267
vn -0.9321 0.2625 0.2497
vn -0.3465 0.8718 0.3463
vn -0.6823 0.2627 0.6822
vn -0.1267 0.8720 0.4729
vn -0.2498 0.2627 0.9320
vn 0.1267 0.8719 0.4729
vn 0.2497 0.2625 0.9321
vn 0.3463 0.8718 0.3465
vn 0.6822 0.2627 0.6823
vn 0.8607 -0.4538 0.2307
vn 0.8607 -0.4538 -0.2307
vn 0.6302 -0.4537 -0.6301
vn 0.2307 -0.4538 -0.8607
vn -0.2307 -0.4538 -0.8607
vn -0.6301 -0.4539 -0.6300
vn -0.8607 -0.4538 -0.2307
vn -0.8607 -0.4538 0.2307
vn -0.6302 -0.4537 0.6301
vn -0.2307 -0.4538 0.8607
vn 0.2307 -0.4539 0.8607
vn 0.6301 -0.4539 0.6300
vn 0.9656 0.0278 -0.2586
vn 0.9656 0.0276 0.2587
vn 0.9656 0.0279 0.2587
vn 0.9656 0.0279 -0.2587
vn 0.7068 0.0281 -0.7068
vn 0.7069 0.0282 -0.7068
vn 0.2587 0.0276 -0.9656
vn 0.2587 0.0279 -0.9656
vn -0.2586 0.0280 -0.9656
vn -0.7068 0.0281 -0.7068
vn -0.7068 0.0282 -0.7069
vn -0.9656 0.0276 -0.2587
vn -0.9656 0.0279 -0.2587
vn -0.9656 0.0278 0.2586
vn -0.9656 0.0279 0.2587
vn -0.7068 0.0281 0.7068
vn -0.7069 0.0282 0.7068
vn -0.2587 0.0276 0.9656
vn -0.2587 0.0279 0.9656
vn 0.2586 0.0278 0.9656
vn 0.2587 0.0279 0.9656
vn 0.7068 0.0281 0.7068
vn 0.7068 0.0282 0.7069
vn 0.9659 0.0000 0.2590
vn 0.9659 0.0000 -0.2590
vn 0.7071 0.0000 -0.7071
vn 0.2590 0.0000 -0.9659
vn -0.2588 -0.0000 -0.9659
vn -0.7071 0.0000 -0.7071
vn -0.9659 0.0000 -0.2590
vn -0.9659 0.0000 0.2590
vn -0.7071 0.0000 0.7071
vn -0.2590 0.0000 0.9659
vn 0.2590 0.0000 0.9659
vn 0.7071 0.0000 0.7071
vn 0.0000 1.0000 0.0000
vn -0.4731 -0.8719 -0.1268
vn -0.4730 -0.8719 0.1267
vn -0.9321 -0.2623 0.2498
vn -0.9321 -0.2623 -0.2498
vn -0.3463 -0.8719 -0.3463
vn -0.6823 -0.2623 -0.6823
vn -0.1267 -0.8719 -0.4730
vn -0.2498 -0.2623 -0.9321
vn 0.1267 -0.8719 -0.4731
vn 0.2497 -0.2623 -0.9321
vn 0.3463 -0.8719 -0.3463
vn 0.1268 -0.8719 -0.4731
vn 0.2498 -0.2623 -0.9321
vn 0.6823 -0.2623 -0.6823
vn 0.4730 -0.8719 -0.1267
vn 0.9321 -0.2623 -0.2498
vn 0.4731 -0.8719 0.1268
vn 0.9321 -0.2623 0.2498
vn 0.3463 -0.8719 0.3463
vn 0.6823 -0.2623 0.6823
vn 0.1267 -0.8719 0.4730
vn 0.2498 -0.2623 0.9321
vn -0.1268 -0.8719 0.4731
vn -0.2498 -0.2623 0.9321
vn -0.3463 -0.8719 0.3463
vn -0.6823 -0.2623 0.6823
vn -0.8607 0.4538 0.2307
vn -0.8607 0.4538 -0.2307
vn -0.6301 0.4538 -0.6301
vn -0.2307 0.4538 -0.8607
vn 0.2307 0.4538 -0.8607
vn 0.6301 0.4538 -0.6301
vn 0.8607 0.4538 -0.2307
vn 0.8607 0.4538 0.2307
vn 0.6301 0.4538 0.6301
vn 0.2307 0.4538 0.8607
vn -0.2307 0.4538 0.8607
vn -0.6301 0.4538 0.6301
vn -0.9656 -0.0278 -0.2586
vn -0.9656 -0.0281 0.2586
vn -0.9655 -0.0278 0.2590
vn -0.9655 -0.0277 -0.2588
vn -0.7069 -0.0281 -0.7068
vn -0.7068 -0.0280 -0.7068
vn -0.2586 -0.0281 -0.9656
vn -0.2590 -0.0278 -0.9655
vn 0.2586 -0.0280 -0.9656
vn 0.7068 -0.0279 -0.7068
vn 0.7068 -0.0280 -0.7068
vn 0.9656 -0.0281 -0.2586
vn 0.9655 -0.0278 -0.2590
vn 0.9656 -0.0278 0.2586
vn 0.9655 -0.0277 0.2588
vn 0.7069 -0.0281 0.7068
vn 0.7068 -0.0280 0.7068
vn 0.2586 -0.0281 0.9656
vn 0.2590 -0.0278 0.9655
vn -0.2586 -0.0278 0.9656
vn -0.2586 -0.0279 0.9656
vn -0.7068 -0.0279 0.7068
vn -0.7068 -0.0280 0.7068
vn 0.0000 -1.0000 0.0000
usemtl factory_pillar_cute_c
s 1
f 1/1/1 2/2/2 3/3/3
f 3/3/3 4/4/4 1/1/1
f 5/5/5 1/1/1 4/4/4
f 4/4/4 6/6/6 5/5/5
f 7/7/7 5/5/5 6/6/6
f 6/6/6 8/8/8 7/7/7
f 9/9/9 7/7/7 8/8/8
f 8/8/8 10/10/10 9/9/9
f 11/11/11 12/12/12 13/13/13
f 13/13/13 14/14/14 11/11/11
f 15/15/15 11/11/11 14/14/14
f 14/14/14 16/16/16 15/15/15
f 17/17/17 15/15/15 16/16/16
f 16/16/16 18/18/18 17/17/17
f 19/19/19 17/17/17 18/18/18
f 18/18/18 20/20/20 19/19/19
f 21/21/21 19/19/19 20/20/20
f 20/20/20 22/22/22 21/21/21
f 23/23/23 21/21/21 22/22/22
f 22/22/22 24/24/24 23/23/23
f 25/25/25 23/23/23 24/24/24
f 24/24/24 26/26/26 25/25/25
f 2/2/2 25/25/25 26/26/26
f 26/26/26 3/3/3 2/2/2
f 4/4/4 3/3/3 27/27/27
f 6/6/6 4/4/4 28/28/28
f 27/27/27 28/28/28 4/4/4
f 28/28/28 29/29/29 6/6/6
f 8/8/8 6/6/6 29/29/29
f 10/10/10 8/8/8 30/30/30
f 29/29/29 30/30/30 8/8/8
f 30/30/30 31/31/31 10/10/10
f 14/14/14 13/13/13 32/32/31
f 32/32/31 33/33/32 14/14/14
f 16/16/16 14/14/14 33/33/32
f 18/18/18 16/16/16 34/34/33
f 33/33/32 34/34/33 16/16/16
f 20/20/20 18/18/18 35/35/34
f 34/34/33 35/35/34 18/18/18
f 35/35/34 36/36/35 20/20/20
f 22/22/22 20/20/20 36/36/35
f 24/24/24 22/22/22 37/37/36
f 36/36/35 37/37/36 22/22/22
f 26/26/26 24/24/24 38/38/37
f 37/37/36 38/38/37 24/24/24
f 38/38/37 39/39/38 26/26/26
f 3/3/3 26/26/26 39/39/38
f 39/39/38 27/27/27 3/3/3
f 40/40/39 41/41/40 42/42/41
f 42/42/41 43/43/42 40/40/39
f 44/44/43 40/40/39 43/43/42
f 43/43/42 45/45/44 44/44/43
f 46/46/45 44/44/43 45/45/44
f 45/45/44 47/47/46 46/46/45
f 48/48/47 46/46/45 47/47/46
f 47/47/46 49/49/47 48/48/47
f 50/50/48 51/51/47 52/52/47
f 52/52/47 53/53/49 50/50/48
f 54/54/50 50/50/48 53/53/49
f 53/53/49 55/55/51 54/54/50
f 56/56/52 54/54/50 55/55/51
f 55/55/51 57/57/53 56/56/52
f 58/58/54 56/56/52 57/57/53
f 57/57/53 59/59/55 58/58/54
f 60/60/56 58/58/54 59/59/55
f 59/59/55 61/61/57 60/60/56
f 62/62/58 60/60/56 61/61/57
f 61/61/57 63/63/59 62/62/58
f 64/64/60 62/62/58 63/63/59
f 63/63/59 65/65/61 64/64/60
f 41/41/40 64/64/60 65/65/61
f 65/65/61 42/42/41 41/41/40
f 66/66/62 67/67/63 68/68/63
f 68/68/63 69/69/62 66/66/62
f 70/70/64 68/68/63 67/67/63
f 67/67/63 71/71/64 70/70/64
f 71/71/64 72/72/65 73/73/65
f 73/73/65 70/70/64 71/71/64
f 74/74/66 73/73/65 72/72/65
f 72/72/65 75/75/66 74/74/66
f 76/76/67 77/77/67 78/78/66
f 78/78/66 79/79/66 76/76/67
f 76/76/67 80/80/68 81/81/68
f 81/81/68 77/77/67 76/76/67
f 82/82/69 81/81/68 80/80/68
f 80/80/68 83/83/69 82/82/69
f 84/84/70 82/82/69 83/83/69
f 83/83/69 85/85/70 84/84/70
f 86/86/71 84/84/70 85/85/70
f 85/85/70 87/87/71 86/86/71
f 88/88/72 86/86/71 87/87/71
f 87/87/71 89/89/72 88/88/72
f 90/90/73 66/66/62 69/69/62
f 89/89/72 90/90/73 91/91/73
f 69/69/62 91/91/73 90/90/73
f 91/91/73 88/88/72 89/89/72
f 92/92/74 93/93/74 94/94/74
f 94/94/74 95/95/74 96/96/74
f 94/94/74 96/96/74 97/97/74
f 96/96/74 98/98/74 97/97/74
f 97/97/74 99/99/74 100/100/74
f 100/100/74 101/101/74 102/102/74
f 97/97/74 100/100/74 102/102/74
f 94/94/74 97/97/74 102/102/74
f 92/92/74 94/94/74 102/102/74
f 103/103/74 92/92/74 102/102/74
f 104/104/75 105/105/76 106/106/77
f 106/106/77 107/107/78 104/104/75
f 108/108/79 104/104/75 107/107/78
f 107/107/78 109/109/80 108/108/79
f 110/110/81 108/108/79 109/109/80
f 109/109/80 111/111/82 110/110/81
f 112/112/83 110/110/81 111/111/82
f 111/111/82 113/113/84 112/112/83
f 114/114/85 115/115/86 116/116/87
f 116/116/87 117/117/88 114/114/85
f 118/118/89 114/114/85 117/117/88
f 117/117/88 119/119/90 118/118/89
f 120/120/91 118/118/89 119/119/90
f 119/119/90 121/121/92 120/120/91
f 122/122/93 120/120/91 121/121/92
f 121/121/92 123/123/94 122/122/93
f 124/124/95 122/122/93 123/123/94
f 123/123/94 125/125/96 124/124/95
f 126/126/97 124/124/95 125/125/96
f 125/125/96 127/127/98 126/126/97
f 128/128/99 126/126/97 127/127/98
f 127/127/98 129/129/100 128/128/99
f 105/105/76 128/128/99 129/129/100
f 129/129/100 106/106/77 105/105/76
f 107/107/78 106/106/77 130/130/101
f 109/109/80 107/107/78 131/131/102
f 130/130/101 131/131/102 107/107/78
f 131/131/102 132/132/103 109/109/80
f 111/111/82 109/109/80 132/132/103
f 113/113/84 111/111/82 133/133/104
f 132/132/103 133/133/104 111/111/82
f 133/133/104 134/134/105 113/113/84
f 117/117/88 116/116/87 135/135/105
f 135/135/105 136/136/106 117/117/88
f 119/119/90 117/117/88 136/136/106
f 121/121/92 119/119/90 137/137/107
f 136/136/106 137/137/107 119/119/90
f 123/123/94 121/121/92 138/138/108
f 137/137/107 138/138/108 121/121/92
f 138/138/108 139/139/109 123/123/94
f 125/125/96 123/123/94 139/139/109
f 127/127/98 125/125/96 140/140/110
f 139/139/109 140/140/110 125/125/96
f 129/129/100 127/127/98 141/141/111
f 140/140/110 141/141/111 127/127/98
f 141/141/111 142/142/112 129/129/100
f 106/106/77 129/129/100 142/142/112
f 142/142/112 130/130/101 106/106/77
f 143/143/113 144/144/114 145/145/115
f 145/145/115 146/146/116 143/143/113
f 147/147/117 143/143/113 146/146/116
f 146/146/116 148/148/118 147/147/117
f 149/149/119 147/147/117 148/148/118
f 148/148/118 150/150/120 149/149/119
f 151/151/121 149/149/119 150/150/120
f 150/150/120 152/152/121 151/151/121
f 153/153/122 154/154/121 155/155/121
f 155/155/121 156/156/123 153/153/122
f 157/157/124 153/153/122 156/156/123
f 156/156/123 158/158/125 157/157/124
f 159/159/126 157/157/124 158/158/125
f 158/158/125 160/160/127 159/159/126
f 161/161/128 159/159/126 160/160/127
f 160/160/127 162/162/129 161/161/128
f 163/163/130 161/161/128 162/162/129
f 162/162/129 164/164/131 163/163/130
f 165/165/132 163/163/130 164/164/131
f 164/164/131 166/166/133 165/165/132
f 167/167/134 165/165/132 166/166/133
f 166/166/133 168/168/135 167/167/134
f 144/144/114 167/167/134 168/168/135
f 168/168/135 145/145/115 144/144/114
f 169/169/136 170/170/136 171/171/136
f 171/171/136 172/172/136 173/173/136
f 171/171/136 173/173/136 174/174/136
f 173/173/136 175/175/136 174/174/136
f 174/174/136 176/176/136 177/177/136
f 177/177/136 178/178/136 179/179/136
f 174/174/136 177/177/136 179/179/136
f 171/171/136 174/174/136 179/179/136
f 169/169/136 171/171/136 179/179/136
f 180/180/136 169/169/136 179/179/136
